<svg viewBox="0 0 32 32" xmlns="http://www.w3.org/2000/svg">
  <rect width="32" height="32" rx="4" fill="#ffffff"/>
  <g transform="translate(4, 4) scale(0.75)">
    <!-- Stylized 'q' letter -->
    <path d="M8,6 C5.8,6 4,7.8 4,10 L4,18 C4,20.2 5.8,22 8,22 L12,22 L12,26 L14,26 L14,16 L8,16 C7.4,16 7,15.6 7,15 L7,10 C7,9.4 7.4,9 8,9 L12,9 C12.6,9 13,9.4 13,10 L13,12 L16,12 L16,10 C16,7.8 14.2,6 12,6 L8,6 Z" fill="#1E88E5"/>
    
    <!-- Stylized 't' letter -->
    <path d="M18,3 L18,6 L16,6 L16,9 L18,9 L18,20 C18,21.1 18.9,22 20,22 L24,22 L24,19 L21,19 L21,9 L24,9 L24,6 L21,6 L21,3 L18,3 Z" fill="#1E88E5"/>
    
    <!-- Stylized 'o' letter -->
    <path d="M28,6 C25.8,6 24,7.8 24,10 L24,18 C24,20.2 25.8,22 28,22 L28,22 C30.2,22 32,20.2 32,18 L32,10 C32,7.8 30.2,6 28,6 L28,6 Z M28,9 C28.6,9 29,9.4 29,10 L29,18 C29,18.6 28.6,19 28,19 L28,19 C27.4,19 27,18.6 27,18 L27,10 C27,9.4 27.4,9 28,9 L28,9 Z" fill="#1E88E5"/>
  </g>
</svg>
